<?xml version="1.0" encoding="utf-8" ?><svg xmlns="http://www.w3.org/2000/svg" xmlns:xlink="http://www.w3.org/1999/xlink" width="238" height="227" viewBox="0 0 238 227"><clipPath id="cl_4"><rect width="237.8623" height="227"/></clipPath><g clip-path="url(#cl_4)"><path fill="#7860DD" transform="scale(0.22168 0.22168)" d="M254.078 424.251C290.856 424.742 281.361 475.754 281.33 499.051C281.289 530.924 280.414 562.914 280.326 594.79C280.22 633.076 270.356 686.794 303.401 714.584C314.89 724.211 328.891 730.355 343.755 732.295C357.624 734.129 371.994 733.5 385.927 733.181C395.702 733.031 405.477 732.962 415.253 732.973L561.768 732.225C603.971 731.992 646.247 731.68 688.432 732.488C709.077 732.884 730.619 733.973 751.175 732.227C774.518 730.243 802.723 724.961 818.215 705.874C828 693.873 828.933 678.539 830.896 663.809C837.557 608.218 830.656 552.27 832.606 496.523C833.609 478.541 832.072 459.642 838.248 442.417C842.312 432.04 845.623 426.896 857.305 426.093C881.707 424.413 884.885 441.689 886.636 461.46C887.691 473.376 887.32 485.909 887.256 498.237C887.118 538.266 887.251 578.295 887.653 618.323C888.242 666.097 885.705 712.14 850.093 748.463C822.92 776.18 793.027 784.283 755.441 784.252C727.624 784.229 699.639 784.02 671.789 783.985L476.182 783.837L390.94 783.862C369.326 783.876 342.709 784.91 321.795 780.848C282.254 773.169 242.863 734.161 234.461 694.87C226.687 658.517 229.12 617.094 229.231 579.896L229.451 440.988C237.273 432.657 243.499 428.337 254.078 424.251Z"/><path fill="#7860DD" transform="scale(0.22168 0.22168)" d="M980.116 144.256C994.749 143.916 1010.38 151.763 1009.56 168.795C1008.61 185.178 995.526 195.917 982.47 203.909C863.425 276.777 758.192 365.29 663.804 468.825C643.286 491.518 623.189 514.59 603.525 538.028C589.448 554.813 576.042 579.986 552.642 580.067C545.89 580.09 538.94 579.747 533.644 574.845C507.826 550.954 486.563 522.754 463.372 496.433C420.463 449.399 375.533 401.745 327.542 359.866C314.552 349.012 298.004 336.793 297.224 318.22C296.656 307.491 304.36 297.499 315.062 295.719C331.166 293.105 343.208 304.499 354.616 313.771C427.493 372.998 485.139 447.567 549.818 514.901C578.144 484.471 602.875 451.752 632.178 420.817C681.251 369.859 733.258 321.809 787.932 276.911C842.263 231.549 915.516 173.795 980.116 144.256Z"/></g></svg>